<?xml version="1.0" encoding="utf-8"?>
<!-- Generator: Adobe Illustrator 23.1.0, SVG Export Plug-In . SVG Version: 6.00 Build 0)  -->
<svg version="1.1" xmlns="http://www.w3.org/2000/svg" xmlns:xlink="http://www.w3.org/1999/xlink" x="0px" y="0px"
	 viewBox="0 0 1007 858" style="enable-background:new 0 0 1007 858;" xml:space="preserve">
<style type="text/css">
	.st0{opacity:0.1;}
	.st1{fill:#70B8AD;}
	.st2{fill:#3F3D56;}
	.st3{opacity:0.5;}
	.st4{fill:none;stroke:#FFFFFF;stroke-miterlimit:10;}
	.st5{fill:url(#SVGID_1_);}
	.st6{fill:#EFB7B9;}
	.st7{opacity:3.000000e-02;enable-background:new    ;}
	.st8{opacity:0.1;enable-background:new    ;}
	.st9{fill:#E1E7EF;}
	.st10{fill:#8FB6DD;}
	.st11{fill:#E4E6ED;}
	.st12{fill:#D8D9E5;}
	.st13{fill:#585268;}
	.st14{font-family:'HelveticaNeue-Black';}
	.st15{font-size:12px;}
</style>
<g id="Layer_2">
	<g class="st0">
		<path class="st1" d="M327.8,389.5c6.4,10.2,17.9,15.9,28.9,21c24.6,11.4,49.4,22.3,74.4,32.6c36.4,15.1,73.7,29.4,105.6,52.6
			c31.9,23.2,56.8,54.2,81.4,84.9l88.6,110.6c27.4,34.2,59.4,71,102.9,76c37.8,4.3,74.6-17.7,98.2-47.4
			c23.6-29.7,36.4-66.4,48.8-102.3c6.3-18.2,12.7-37.6,8.5-56.4c-5-22.6-24-39.3-33.1-60.5c-16.5-38.1,1.1-81.3,17.2-119.5
			c16.1-38.2,30.4-83.8,8.9-119.2c-31.2-51.4-108.8-40.9-162-68.9c-50.5-26.6-74-85.1-113.2-126.6C595.4-26.3,455-8.7,386,94.8
			c-22.6,33.9-26.2,69.7-34.1,108.7C342,252,298.5,342.9,327.8,389.5z"/>
	</g>
	<path class="st2" d="M903.8,400.6v2.1c0,5.3-0.2,10.5-0.5,15.7c-9.8,193.5-174.6,342.3-368.1,332.5
		C357.3,741.8,214.4,600.8,203.1,423c-0.5-7.4-0.7-14.9-0.7-22.4c-0.1-72.6,22.4-143.5,64.5-202.7c3.4-4.8,6.9-9.5,10.5-14.1
		c2.5-3.2,5.1-6.3,7.7-9.4C408.2,28.5,625.4,7.9,773.8,128c4.2,3.4,8.4,6.9,12.4,10.5c3.2,2.9,6.4,5.8,9.6,8.9
		c61.7,59,99.7,138.6,106.8,223.7C903.4,380.8,903.8,390.6,903.8,400.6z"/>
	<path class="st1" d="M908.5,439.3c-1.4,1.7-3.6,2.5-5.6,2.2c-5.4-1.1-6.8-9.9-12.1-11.4c-0.5-0.2-1-0.2-1.4,0
		c-0.9,0.4-1.1,1.5-1.3,2.5c-0.8,4.8-1.5,9.9-0.2,14.5c1.9,6.8,7.9,13.1,5.7,19.9c-7.1-4.6-10-14.1-10.8-23
		c-0.8-8.9-0.1-18.1-2.4-26.7c-2.8,3.1-7.5-0.2-9.4-4c-1.7-3.5-2.6-7.5-4.3-11.1c-1.7-3.6-4.4-6.9-8.1-7.5
		c-3.9-0.6-7.6,1.9-10.8,4.3c-2.8,1.8-5.2,4.1-7.2,7c-2.6,4.3-2.6,9.7-3.3,14.7c-0.7,5.4-2.4,11.1-6.2,14.7
		c-3.9,3.6-10.3,4.3-13.7,0.3c-1.6-2.3-2.6-4.9-3-7.8c-2.7-13.4-4.7-27-6-40.7c-1,3-3.9,6.7-6.1,4.6c-0.5-0.5-0.8-1.2-1.1-1.9
		c-3.5-8.6-11.2-14.3-19.2-18.1c-7.9-3.8-16.5-6.1-24.3-10.2c-4.4-2.3-8.5-5.1-12.3-8.4c-2.5,3.1-3.2,7.5-1.9,11.3
		c1.5,3.8,5.2,6,9,5.3c1.9-0.4,3.6-1.6,5.4-2.1c1.9-0.5,4.3,0.1,4.8,2.1c0.6,1.9-0.8,3.9-0.4,5.9c0.5,2.9,4.5,3.6,5.6,6.4
		c0.6,2.2-0.2,4.6-2,5.9c-1.8,1.2-3.7,2.2-5.6,2.9c-6.2,2.9-11.1,8.5-16.7,12.6c-5.6,4.1-13.2,6.8-19,3.1c2.3-7.8-5.8-14.6-6.6-22.7
		c-0.3-2.7,0.3-5.4-0.2-8c-0.7-3.8-3.5-6.7-5.6-9.7c-5.3-7.6-7.6-17.2-6.2-26.7c0.5-3.3,1.4-6.5,1.1-9.8c-0.3-3.3-2.5-6.6-5.5-6.8
		c-7-0.4-15.7-0.8-18.7-7.6c-1.1-2.4-1.3-5.8,0.8-7.4c1.6-0.9,3.4-1,5.1-0.4c5.2,1.1,10.3,2.2,15.4,3.4c3.6,0.8,7.5,1.5,10.9-0.2
		c3.4-1.7,5.3-7.1,2.7-9.8c-1.9-2-5.7-2.3-6-5.2c-0.2-2.4,2.4-4.8,1.4-6.9c-0.8-1.5-2.9-1.3-4.3-0.4c-1.2,1.1-2.6,2.1-4,3
		c-2.6,1.1-5.5-0.5-8-1.7c-2.6-1.2-6.2-1.7-7.7,0.9c-1.8,2.8,0.5,7.1-1.2,10c-2.3,3.8-8.5,0.8-11.6,3.9c-3.5,3.6,1,10-0.5,14.9
		c-2.8,1.2-6,0.6-8.4-1.4c-2.3-2.1-3.3-5.4-2.6-8.6c0.5-2.2,1.8-4.4,1.3-6.6c-0.6-1.7-1.8-3.2-3.3-4c-4.7-3.6-9.4-7.2-14.2-10.7
		c-1.7,2.7-0.3,6.4,1.7,8.7c2,2.4,4.6,4.3,5.8,7.2c1.5,4.2-0.3,9-4.2,11c-0.5,0.3-1,0.3-1.5,0.1c-0.5-0.4-0.8-0.9-0.8-1.5
		c-1.9-7.7-5.1-15.4-11.1-20c-6-4.6-15.3-4.8-20.2,1.3c-1.2,1.4-2,3.1-3.1,4.7c-5.6,8.2-15.9,11.2-25.2,10c-0.9,0-1.8-0.4-2.5-0.9
		c-1.4-1.3-1.1-3.6-0.6-5.6c0.6-2.7,1.2-5.5,1.9-8.2c0.2-1.7,1-3.3,2.2-4.4c1.9-1.3,4.3-0.1,6.5,0.1c3.4,0.2,6.6-1.9,8-5.3
		c1.3-3.4,0.7-7.3-1.5-10.1c-0.9-1.1-2.1-2.6-1.4-3.9c0.5-0.7,1.3-1.2,2.1-1.2c4.1-0.8,8.3-0.7,12.3-1.7c4-1,8.1-3.6,9.5-7.8
		c0.4-1.3,0.7-2.9,1.9-3.4c0.6-0.2,1.2-0.2,1.8-0.2c4.4-0.2,8-4,8.3-8.8c2-1.2,4.5,0.1,6.1,1.8c1.6,1.7,3,3.8,5.1,4.7
		c3.9,1.6,8.3-1.8,12.5-1.4c1.8,0.2,3.5,1.1,5.3,0.6c1.8-0.5,3-2.2,4.4-3.4c1.5-1.2,3.8-1.8,4.9-0.2c-0.1-2.8-0.1-5.5-0.1-8.3
		c4,1.6,8.5,1.2,12.3-1.1c-4.2-2.1-8.4-4.2-12.6-6.2c-0.4-0.2-0.8-0.5-1.2-0.9c-0.8-1.2,0.3-2.8,1.2-4c2.2-2.8,3-7.8,0.1-9.6
		c-2-1.3-4.5-0.3-6.6,0.7c-3.4,1.6-6.8,3.2-10.2,4.7c-0.5,1.9,1.6,3.3,2.8,4.8c2.1,2.5,1.9,6.3-0.5,8.5c-1.2,1.2-2.7,1.7-4.3,1.6
		c1.1,1.9,1.3,4.3,0.5,6.5c-2.2-0.1-4.3-0.1-6.5-0.2c-0.7,0.1-1.5-0.2-2-0.7c-0.6-0.7-0.4-1.9-0.5-2.9c-0.3-2.5-2-4.4-4.3-5
		c-2.2-0.5-4.5-0.5-6.7-0.1c-1,0.3-2,0.1-2.8-0.4c-0.5-0.4-0.8-1-0.9-1.7c-0.5-2.7,0.4-5.5,2.3-7.4c1.9-1.8,3.9-3.5,6.1-4.9
		c5-3.8,8.9-9,11.3-15c3.7-1.2,7.6-3,11.4-4.3c3-1.1,6.2-1.9,9.3-2.3c3-0.2,5.9,0,8.8,0.5c4,0.5,8,1,12,1.6
		c3.6,0.2,7.1,1.2,10.4,2.8c3.1,1.8,5.7,5.3,5.5,9.2c0,0.9-0.4,1.8-1,2.3c-0.5,0.2-1,0.3-1.6,0.2c-3.3-0.2-4.8,0.5-8.2,0.3
		c1.8,2.7,3.9,5.5,7,6.2c5.3,1.3,9.9-4.3,12.9-9.3c-0.1,2.8,1.9,5.2,4.4,5.3c1.4-0.1,2.7-0.5,3.9-1.2c11.4-5.2,23.8-7.2,36-6
		c0-2.1,1.4-3.9,3.4-4.2c2.5-0.3,4.5,2.3,5.5,4.8c0.9,2.5,1.4,5.4,3.1,7.4c1.7,2,5.4,2.3,6.4-0.2c1-2.4-1.2-4.8-3-6.5
		c-1.9-1.7-3.7-4.7-2.1-6.7c10.5-1.4,21.1-2.7,31.7-2c1.8,0.3,3.6,0.1,5.3-0.4c1.8-0.6,3-2.4,2.9-4.4c-4.8,0.7-9.5-1.8-11.8-6.4
		c10.9,0.2,22.3,0.6,32.4,4.3l8.2,9.3c-1.9,1.8-4.4,3.3-3.4,5.4c0.7,1,1.9,1.6,3.1,1.5c2.2,0.3,4.4,0.6,6.6,0.8
		c40,51.5,60.9,117.4,58.8,185.2c-3.6-0.5-7.5,4.1-7.6,8.5c0,5.1,2.9,9.6,4.9,14.2c0.3,0.8,0.6,1.5,0.8,2.3L908.5,439.3z"/>
	<path class="st1" d="M344.7,111.3c0.2,0.1,0.3,0.2,0.5,0.4c1.7,2-1.5,4.3-1.8,6.7c-0.3,3.1,4.1,4.8,7.5,5.9
		c3.4,1.1,7.2,4.6,4.9,6.9c-9.3,0.7-17.4-4-25.6-9c-58.8,46.6-99,109.4-114.9,179.5c-1.7,7.3-3.1,14.5-4.2,21.8
		c0.6,0.6,1.3,1.2,2.1,1.7c2.4,1.5,5.4,2,7.5,3.8c1.7,1.4,2.5,3.5,4.2,4.8c4.8,3.9,13.5,0.6,17.8,4.8c1.1,1.4,2,2.8,2.9,4.2
		c3.8,4.7,12.1,4,16.8,7.9c3.1,2.5,4.1,6.4,5.2,9.9c2.8,8.9,8.6,18.3,18.4,21.2c3.2,0.6,6.3,1.4,9.3,2.4c2.9,1.3,5.4,4.4,4.3,7
		c-1.9,4.5-0.5,10.3-2.3,14.8c-3.3,8.3-17.9,9-21,17.3c-0.4,1.9-1,3.8-1.7,5.6c-1.1,2.1-3.5,3.5-4.7,5.6c-2.3,4,0.2,9,3.3,12.7
		c3.1,3.7,7.1,7.3,8.2,11.7c1.2,4.8-1,9.5-1.4,14.2c-0.8,10.5,7.3,20.2,16.3,27.3c3,1.9,5.4,4.5,7.1,7.4c1.8,3.9,0.6,8.3,0.5,12.5
		c-0.1,10.2,7.3,20.4,5.3,30.3c-1.4,7.1-7.3,12.5-11.5,18.5c-4.3,6.3-6.8,13.6-7.3,21.2c12.2,14.5,25.6,28.2,40,41
		c1.2-1,2.1-2.1,2.8-3.4c1.4-3,0.5-6.5-2.2-8.8c3-0.3,5.9-1.2,8.4-2.5c2.6-1.5,3.8-4.3,3-7c4.4,1.6,9.8,3,13.5,0.6
		c3-1.9,3.7-5.7,3.4-9.1c-0.6-3.4-0.7-6.8-0.4-10.1c10.5,2.9,21.1,5,31.9,6.3c-0.5-4.9-3.1-9.5-7.2-12.9c4.9,0.4,10.4-3.7,12.9-7.4
		c2.3-3.9,3.3-8.2,3.1-12.7c-0.1-1.2,0.1-2.3,0.6-3.3c1.1-1.3,2.7-2.1,4.5-2.4c8.8-2.2,17.6-4.4,26.4-6.6c1.5-0.3,3-0.8,4.3-1.6
		c3.1-2,3.6-6,3.1-9.5c-0.5-3.5-1.9-7-1.6-10.4c0.9-10.4,14.6-14.8,20.9-23.4c2.3-3.5,3.9-7.2,4.9-11.2c1.3-4.2,2.5-9.1-0.6-12.7
		c-2.9-3.5-8.6-4.1-11.7-7.4c-2.9-3-3-7.7-6.3-10.3c-3-2.4-7.4-2.3-11-4c-6.3-2.9-8.9-10.6-15.5-12.7c-3.7-1.2-8.4-0.6-11-3.2
		c-2.3-2.4-1.7-5.9-1.5-8.9c0.3-9.8-6.3-19.1-16.5-23.2c-3.8-1.5-8.1-2.2-11-4.9c-2.9-2.7-3.6-6.7-5.7-10
		c-3.3-5.3-9.6-8.4-15.6-11.1c-8.1-3.7-16.3-7.5-24.4-11.2c-4.3-2-10.1-3.9-13.3-0.9c-1,1.2-1.9,2.5-2.5,3.9
		c-3.1,5-9.6,7.5-16.1,6.1c-1.4-3.7-4.3-6.9-8.2-8.9c-2.6-1-5.1-2.2-7.5-3.5c-4.9-3.6-5.8-10-2-14.3c0.1-0.1,0.3-0.3,0.4-0.4
		c4.1-4.1,4.5-10.3,1-15.2c-3.6-4.5-9.7-6.8-15.6-7.8c-0.8-3.3,2.5-6.1,5.7-7.6c3.3-1.5,7.1-2.9,8.4-5.9c2.1-4.8-4.3-10.4-10.1-10.1
		c-5.9,0.3-10.5,4.2-13.9,8.4c-1.8,2.5-3.9,4.8-6.4,6.7c-2.6,2-6.2,2.4-9.4,1.2c-4.3-2.1-5-7.3-5-11.6c-0.4-5.8,0.1-11.6,1.4-17.2
		c1.3-5.6,5.1-10.5,10.5-13.5c9-4.4,20.4-1.2,30.4,2.2c-1.6-3.2-0.5-6.9,2.8-8.6c3.3-1.5,7.3-1.5,10.7,0.1c2.9,1.3,5.4,3.4,6.9,6
		c2.2,3.8,2,8.2,3.4,12.3c1.4,4.1,5.6,8.2,10.1,7.3c3.9-0.9,5.4-5,5.3-8.6c-0.1-3.6-1.2-7.4-0.1-10.8c2.1-6.5,10.8-8.8,18.3-9.9
		c7.5-1.2,16.2-3.1,18.8-9.4c0.3-1.3,0.9-2.5,1.7-3.6c1-0.9,2.3-1.6,3.7-1.9c22.7-7.2,45.9-14.4,70.2-15.6c1.3-0.1,1.3,0.3,2.6,0.4
		c1.9-0.5,1.3-3.2-0.1-4.5c-1.4-1.3-3.4-2.6-3.4-4.4c0-1.3,1.1-2.4,1.6-3.6c0.8-2.5-0.9-5.3-3.8-6.1c-0.7-0.2-1.4-0.3-2-0.2
		c-1.3-2.6,2.9-4.3,6-4.3c9.3-0.1,18.7,0.7,28,2.3c1.1,0.1,2.1,0.5,3,1.2c1.1,1.5,0.8,3.5-0.8,4.5c-1.5,0.9-3.2,1.7-4.9,2.4
		c-3.6,1.9-5.7,5.6-5.3,9.4c4.3,3.3,9,6.7,14.5,7.1c5.5,0.5,11.4-3.8,9.8-8.5c-1.4-4.5-8.2-7-8.4-11.5c-0.2-5.4,8.8-8,8.1-13.3
		c-0.3-2.3-2.4-4.2-3.9-6.2c-3.6-5-3.5-11.2,0.1-15.8c-6.4-0.5-12.3-3.7-15.8-8.6c-3.2-4.5-5.1-11-10.9-12.1
		c-5.3-1.1-11.1,3.3-15.6,0.6c-1.1-0.7-2.2-1.8-3.5-1.6c-0.9,0.3-1.6,0.9-1.8,1.7c-2.5,5-1.7,11.6-6,15.4c-4.7,4.2-13.1,3-18.4,6.5
		c-2.9,1.9-4.6,5-7.3,7.1c-2.7,2.1-7.7,2.7-9.7-0.2c3.7-4.2,3.6-10.2-0.3-14.6c-2.1-1.9-4.4-3.6-6.9-5.1c-2.8-1.8-5.3-3.9-7.6-6.2
		c-1.2-1-2-2.3-2.4-3.7c-0.2-1.7,0.2-3.3,1.3-4.7c4.2-6.2,12-9.5,20.3-8.8c3.5,0.4,7.5,1.4,10.3-0.4c1.5-0.9,2.5-2.7,4.4-2.7
		c1.2,0,2.3,0.4,3.2,1.1c4,2.3,7.9,4.6,11.9,6.9c1.3,0.9,2.8,1.5,4.4,1.7c1.6,0.2,3.1-0.8,3.3-2.3c0-2-3-3.6-2.3-5.5
		c0.3-0.6,0.8-1.1,1.4-1.4c11.4-6.7,25.8-8.3,39.2-4.4c1.1,2.7-2.1,4.9-4.7,6.4c-2.6,1.5-5.1,4.7-2.9,6.9c0.9,0.7,2,1.2,3.2,1.5
		c3.1,1.1,5.9,2.6,8.5,4.5c4,2.7,8,5.6,11.7,8.6c-0.1-2.6,0.6-5.2,2-7.4c1.5-2.2,4.8-3,7.5-1.7c2.3,1.5,2.9,4.7,5.6,5.6
		c3.5,1.2,6-3.2,5.2-6.5c-0.8-3.3-3.3-6.4-2.8-9.7c0.3-2.2,1.9-4.7,0.2-6.4c-0.6-0.6-1.3-1-2.1-1.3c-15.7-6.4-31.3-12.8-47-19.2
		c-2.8-1.1-7-1.7-7.8,0.8c-0.4,1.5,0.7,3.2-0.2,4.4c-1,1.3-3.3,0.6-5.1,0.8c-2.8,0.4-4.8,2.5-5,5.1c-0.1,2.5,0.4,5,1.5,7.4
		c-2.9-1.9-7.7-3.2-10.6-5.1c0.3-3.4,0.1-6.8-0.6-10.2c0.1-1.9-1.5-3.6-3.6-3.8c-0.2,0-0.5,0-0.7,0c-4.3-0.4-8.7-0.8-13-1.2
		c-1.1-0.2-2.2-0.1-3.1,0.3c-2,1.2-0.9,4-1.5,6.1c-0.9,2.4-3.3,3.9-6.1,3.8c-2.7-0.1-5.5-0.8-8-1.9c-5.7-2.2-11.4-4.3-17.1-6.5
		c5.5-0.3,10.8-2,15.1-4.9c2.9-1.9,5.2-6.2,2.1-8.1c-0.9-0.5-2-0.8-3-0.9c-8-1.8-12.9-9.1-19.8-13.4c-2.2-1.3-4.6-2.3-7.1-2.9
		L344.7,111.3z"/>
</g>
<g id="Layer_1">
	<title>reading list</title>
	<g class="st3">
		<path class="st1" d="M284.6,584.3c0,0-132.2-66.9-75.7-216.4S60.8,166.6,60.8,166.6S20.8,312.2,96.1,409.1
			S200.4,666.9,284.6,584.3z"/>
		<path class="st4" d="M60.8,166.6c0,0,55.8,96.7,83.9,222.4s74,229.5,139.2,192.9"/>
	</g>
	<g class="st3">
		<path class="st1" d="M256.2,608.8c0,0-52.9-75.9,17.3-149.1S248,299.7,248,299.7s-60.3,75.3-45.9,153.4S189.1,634.6,256.2,608.8z"
			/>
		<path class="st4" d="M248,299.7c0,0,4,72.6-14.5,154.9S211.8,611,256.5,607.2"/>
	</g>
	<g class="st0">
		<path class="st1" d="M100.4,728.4c0.9,5.7,4.2,10.1,7.4,14l37.3,47.3c3,3.8,6.2,7.8,10.3,8.8c8.4,2.2,15.2-8.6,22.4-14.9
			c25.6-22.5,60.6,11.8,89.6-1.3c11.6-5.2,21-17.7,32.8-21.9c31.3-11.2,57.7,38.3,90,40.8c10.6,0.8,21-3.6,31.1-7.9l67.5-28.9
			c4.7-2,9.5-4,14.4-4.1c8.3-0.1,16,5.2,23.9,9.1c31.5,15.5,66.4,7.1,98.8-4.6c32.3-11.8,64.9-26.9,98.3-24.4
			c8.7,0.7,20.2,0.1,22.6-11.3c1.4-6.8-17.7,0.3-22.1-3.3s6.1-18.9,0.9-19.6c-30-3.8-60.7-3.9-90,5.6c-15.2,4.9-30.2,12.4-45.8,13.9
			c-16.3,1.6-32.5-3.3-48.5-7.8c-40.5-11.4-81.6-20-123-18.3c-73.4,3.2-145.8,39.4-218.9,28.9c-21.7-3.2-42.7-10.2-62-20.7
			c-9.9-5.3-9.4,13.5-19.5,19.9c-3.3,2.1-11.8-17.2-14.4-13.5C100.7,718.3,99.5,723.4,100.4,728.4z"/>
	</g>
	
		<linearGradient id="SVGID_1_" gradientUnits="userSpaceOnUse" x1="525.4067" y1="81.1458" x2="525.4067" y2="684.6907" gradientTransform="matrix(1 0 0 -1 -96.48 839)">
		<stop  offset="0" style="stop-color:#808080;stop-opacity:0.25"/>
		<stop  offset="0.54" style="stop-color:#808080;stop-opacity:0.12"/>
		<stop  offset="1" style="stop-color:#808080;stop-opacity:0.1"/>
	</linearGradient>
	<path class="st5" d="M730.3,637.1L613.5,484.3c-9.1-42.9-22.8-42.9-22.8-42.9c-93-12.5-118.6-28.6-118.6-28.6l-20.8-8.1l-1.7-1
		c-0.1-0.5-0.2-0.9-0.2-1.4c-0.1-0.5-0.2-1.1-0.2-1.6c22.7-13.7,39.1-35.8,45.6-61.5c0.2-0.7,0.3-1.4,0.5-2
		c4.5-2.1,8.2-5.5,10.9-9.7c8.9-14.7,0.4-33.2,0.6-50.3c0.1-10.8,3.8-21.4,3.4-32.1c-0.4-9-3.6-17.7-7.1-26
		c-1.7-4.1-3.6-8.2-6.9-11.2c-8.7-7.9-22.8-4.5-34-8.4c-14.5-5-21.2-20.7-29.5-33.3c-3.2-4.9-9-10-14.3-7.3
		c-6.2,3.1-4.5,13.8-10.7,16.8c-3.8,1.8-8.4-0.5-11.1-3.6s-4.2-7.1-6.9-10.3c-4.9-5.6-12.4-8.2-19.7-6.6c-1.4,0.2-2.7,0.9-3.7,1.9
		c-2,2.3-0.7,5.8-0.6,8.8c0.5,10.2-12,15.8-22.3,16.9c-10.3,1.1-22.5,1.2-28.6,9.4c-3.3,4.3-4,10-6.2,15
		c-5.1,11.5-17.5,17.8-28.3,24.3c-10.9,6.6-22,16.2-21.9,28.7c0.1,12,10.7,21.7,12.6,33.6c1,6.3-0.6,12.8,0.7,19.1
		c2.3,11.5,13,19.2,22.9,25.7c0.7,0.4,1.4,0.9,2,1.3c0.2,0.7,0.4,1.4,0.5,2.1c7.7,27.1,26.4,49.7,51.5,62.4c0.2,0.7,0.3,1.4,0.5,2
		c0.5,2.1,0.9,4.4,1.3,6.7l-0.3,0.1v-0.2l-115.3,29.4c-0.7-0.2-1.4-0.3-2.2-0.3c-4.7-0.4-19.5,4.7-36.7,73.7l-73.9,130.5
		c0,0-42.9,41.1-10,76c16.7,17.8,35.6,22.1,50.1,22c8.4,0.1,16.8-1.3,24.7-4.2c0,0-0.6-0.9-1.5-2.5l9.8,1.2
		c19.2,21.4,51.9,13.9,51.9,13.9s46.5-0.5,48.3-24.9l83.7,25.7l0.3,4.6H423l-0.1-2.9l92.4-27.8c7.2,13.3,24.8,19.9,24.8,19.9
		s54.2,2.3,71.3-7.6c7.2-4.2,15-7.2,23.1-8.9l0.5,0l-0.1,0.1l104.4-11.2C786.8,678.3,730.3,637.1,730.3,637.1z M204.6,673.5
		l-2.3-1.3c4.1-1.6,8.3-2.8,12.6-3.7l20.3-25.1l3.5,24.7C227.1,665.4,214.9,667.3,204.6,673.5z M597.6,673.3
		c-7.6-5.7-16.8-8.7-26.3-8.6l0.8-60.9c7.6,4.9,14,10.3,15.9,15.4c5.5,15.2,31.9,39.3,31.9,39.3l-13.7,11.3l0,0l-2.1,1.8
		c-0.6,0.1-1.2,0.3-1.7,0.4L597.6,673.3z"/>
	<polygon class="st6" points="183.3,740.5 204.6,743.2 217,681.9 193,667.7 162,701.5 	"/>
	<polygon class="st7" points="183.3,740.5 204.6,743.2 217,681.9 193,667.7 162,701.5 	"/>
	<path class="st6" d="M469.2,439.5l-51.5,46.2c0,0-99.5,22.2-74.6-8.9c14.1-17.6,12.2-44.3,7.9-64.2c-1.9-9-4.6-17.8-7.9-26.4
		c0,0,127.9-77.2,110.1-18.6c-5.3,17.4-6,30.8-4.4,41C452.6,432.9,469.2,439.5,469.2,439.5z"/>
	<path class="st8" d="M453.3,367.5c-5.3,17.4-6,30.8-4.4,41c-29.6,18.4-66.7,19.9-97.8,4c-1.9-9-4.6-17.8-7.9-26.4
		C343.1,386.2,471,308.9,453.3,367.5z"/>
	<path class="st6" d="M495.9,322.2c0,54.9-44.5,99.5-99.5,99.5S297,377.2,297,322.2c0-54.9,44.5-99.4,99.4-99.5
		c54.8-0.2,99.3,44.1,99.5,98.9C495.9,321.8,495.9,322,495.9,322.2z"/>
	<polygon class="st9" points="328,451 328,633.1 503,618.9 473.7,433.2 396.4,479.4 	"/>
	<path class="st8" d="M449.1,411.7c0,0-5.6,26-44.6,60.6c0,0,12,4,13.8,36l14.7,20c0,0,11.5-41.7,32-56c20.4-14.2,0-51.5,0-51.5
		L449.1,411.7z"/>
	<path class="st9" d="M449.1,410c0,0-5.6,26-44.6,60.6c0,0,12,4,13.8,36l14.7,20c0,0,11.5-41.7,32-56c20.4-14.2,0-51.5,0-51.5
		L449.1,410z"/>
	<path class="st8" d="M396.4,472.3c0,0-16.8,13.3-17.7,34.6s-9.8,21.3-9.8,21.3s-22.2-68.4-29.3-74.6c-7.1-6.2,12.8-32.5,12.8-32.5
		S363.6,458.1,396.4,472.3z"/>
	<path class="st9" d="M396.4,470.5c0,0-16.8,13.3-17.7,34.7c-0.9,21.3-9.8,21.3-9.8,21.3s-22.2-68.4-29.3-74.6
		c-7.1-6.2,12.8-32.5,12.8-32.5S363.6,456.3,396.4,470.5z"/>
	<path class="st8" d="M447.9,410.2l22.2,8.9c0,0,24.9,16,115.5,28.4c0,0,13.3,0,22.2,42.6L721.5,642c0,0,55.1,40.8,8.9,81.7
		l-101.7,11.1c0,0,58.6-56-30.2-57.7l16.4-13.8c0,0-25.8-24-31.1-39.1c-5.3-15.1-48.8-32-48.8-32l5.3,127.9l-80,12.4l-11.5-238
		c-0.6-11.2,0.1-22.5,1.9-33.6C453.8,442.9,456.9,414.4,447.9,410.2z"/>
	<path class="st10" d="M448.8,410.2L471,419c0,0,24.9,16,115.5,28.4c0,0,13.3,0,22.2,42.6L722.4,642c0,0,55.1,40.8,8.9,81.7
		l-101.7,11.1c0,0,58.6-56-30.2-57.7l16.4-13.8c0,0-25.8-24-31.1-39.1c-5.3-15.1-48.8-32-48.8-32l5.3,127.9l-80,12.4l-11.5-238
		c-0.6-11.2,0.1-22.5,1.9-33.6C454.7,442.9,457.8,414.4,448.8,410.2z"/>
	<path class="st8" d="M352.9,419l-112.8,29.3c0,0-16.9-10.7-37.3,72.8l-71.9,129.7c0,0-41.7,40.8-9.8,75.5c32,34.7,72,17.7,72,17.7
		s-36.4-56.8,27.5-71l24-30.2L353,655.3L350.2,499l3-18.2c3.3-19.7,3.3-39.8,0-59.5L352.9,419z"/>
	<path class="st10" d="M352,419l-112.8,29.3c0,0-16.9-10.7-37.3,72.8L130,650.9c0,0-41.8,40.8-9.8,75.4s71.9,17.8,71.9,17.8
		s-36.4-56.8,27.5-71l24-30.2l108.3,12.4L349.3,499l3-18.2c3.3-19.7,3.3-39.8,0-59.5L352,419z"/>
	<polygon class="st11" points="241,506.1 230.3,514.1 391.1,554.9 391.1,538.9 	"/>
	<polygon class="st11" points="551.8,503.4 562.5,511.4 391.1,554.9 391.1,538.9 	"/>
	<polygon class="st1" points="220.6,506.1 369.8,540.7 380.4,757.4 249.9,716.6 	"/>
	<polygon class="st1" points="569.6,506.1 410.6,542.5 419.5,760.1 566.9,714.8 	"/>
	<path class="st1" d="M364.4,540.7c0,0,26,16,53.4,0l5.3,221.1h-42.8L364.4,540.7z"/>
	<path class="st8" d="M364.4,540.7c0,0,26,16,53.4,0l5.3,221.1h-42.8L364.4,540.7z"/>
	<path class="st12" d="M244.6,503.4v6.2l146.5,29.3C391.1,538.9,316.5,511.4,244.6,503.4z"/>
	<path class="st12" d="M549.2,499.9v6.2l-158.1,32.9C391.1,538.9,477.2,507.8,549.2,499.9z"/>
	<path class="st6" d="M597.8,676.6l-4.6,1.2c0,0-30.2-26.4-68.7,13.6s12.8,59.6,12.8,59.6s52.8,2.3,69.4-7.5c7.1-4.3,15-7.3,23.1-9
		c5-1,9.5-3.5,13-7.3l0,0c6.3-6.9,9.1-16.3,7.7-25.5l0,0c-1.8-12.2-10.8-22.2-22.7-25.3l0,0C617.9,673.9,607.6,674,597.8,676.6z"/>
	<path class="st6" d="M206.4,681c0,0,35.5-32,79,21.3s-33.8,54.2-33.8,54.2s-41.8,9.7-57.7-24.9C178,697,206.4,681,206.4,681z"/>
	<path class="st8" d="M601.5,674.5c0,0,41.3,12.1,32.4,59.7l25-2.7l5.3-24.2l-10.7-33.7l-20.4-8L601.5,674.5z"/>
	<path class="st10" d="M602.4,674.5c0,0,41.3,12.1,32.4,59.7l25-2.7l5.3-24.2l-10.7-33.7l-20.4-8L602.4,674.5z"/>
	<path class="st8" d="M495.9,322.2c0,8-0.9,15.9-2.8,23.6c-6.2,3-13.2,4-20.1,2.9c-11.8-1.8-22.2-8.8-30.8-17
		c-8.6-8.2-15.8-17.8-24.1-26.3c-7.5-7.7-16.8-15-27.6-15.3c-9.8-0.3-18.7,5.2-28.2,7.8c-9.9,2.7-29.8-4.7-34.7,3.7
		c-2.8,4.9-1.8,15.8-3.5,21.6c-1.8,6.4-4.4,12.5-7.6,18.3c-2.4,4.2-5.9,8.7-10.8,8.7c-1.9-0.1-3.7-0.7-5.3-1.7
		c-14.5-53,16.7-107.7,69.7-122.2c53-14.5,107.7,16.7,122.2,69.7C494.7,304.5,495.9,313.3,495.9,322.2L495.9,322.2z"/>
	<path class="st13" d="M362.3,296.2c9.5-2.6,18.4-8.1,28.2-7.8c10.8,0.3,20.1,7.6,27.6,15.3c8.3,8.5,15.5,18.1,24.1,26.3
		c8.6,8.2,19,15.2,30.8,17c11.8,1.8,25-2.6,31.1-12.8c8.7-14.6,0.4-33,0.6-49.9c0.1-10.7,3.7-21.2,3.3-31.9
		c-0.3-9-3.5-17.6-6.9-25.9c-1.7-4-3.5-8.1-6.7-11.1c-8.5-7.8-22.2-4.5-33.1-8.3c-14.1-5-20.6-20.6-28.8-33.1
		c-3.1-4.8-8.8-9.9-13.9-7.3c-6,3.1-4.4,13.7-10.5,16.7c-3.7,1.8-8.2-0.5-10.8-3.6s-4.1-7.1-6.7-10.3c-4.7-5.6-12.1-8.1-19.2-6.6
		c-1.4,0.2-2.7,0.9-3.6,1.9c-1.9,2.3-0.7,5.7-0.6,8.7c0.5,10.1-11.7,15.7-21.7,16.8s-21.9,1.2-27.9,9.4c-3.2,4.3-3.9,9.9-6,14.8
		c-5,11.4-17,17.6-27.6,24.2c-10.6,6.6-21.5,16.1-21.4,28.5c0.1,12,10.4,21.6,12.2,33.4c1,6.3-0.5,12.7,0.7,18.9
		c2.2,11.4,12.7,19.1,22.3,25.6c2.4,1.6,5,3.3,7.8,3.3c4.8,0,8.4-4.4,10.8-8.7c3.2-5.8,5.8-11.9,7.6-18.3c1.7-5.9,0.7-16.7,3.5-21.6
		C332.5,291.4,352.4,298.9,362.3,296.2z"/>
	<text transform="matrix(0.9774 -0.2114 0.2114 0.9774 444.1802 638.5598)" class="st2 st14 st15">ALZATI WORLD</text>
</g>
</svg>
