<?xml version="1.0" encoding="utf-8"?>
<!-- Generator: Adobe Illustrator 24.0.2, SVG Export Plug-In . SVG Version: 6.00 Build 0)  -->
<svg version="1.1" id="a02f2390-8fa7-48a9-96f1-2ec5f63ecbc1"
	 xmlns="http://www.w3.org/2000/svg" xmlns:xlink="http://www.w3.org/1999/xlink" x="0px" y="0px" viewBox="0 0 1150 627.5"
	 style="enable-background:new 0 0 1150 627.5;" xml:space="preserve">
<style type="text/css">
	.st0{opacity:0.1;fill:#70B8AD;enable-background:new    ;}
	.st1{fill:#454B69;}
	.st2{fill:none;}
	.st3{opacity:0.4;enable-background:new    ;}
	.st4{opacity:0.1;enable-background:new    ;}
	.st5{fill:#EFB7B9;}
	.st6{fill:#FFFFFF;}
	.st7{fill:#70B8AD;}
	.st8{opacity:0.1;}
	.st9{opacity:8.000000e-02;enable-background:new    ;}
	.st10{fill:#3F3D56;}
	.st11{fill:#9C9CA1;}
	.st12{fill:#939498;}
</style>
<title>teacher</title>
<path class="st0" d="M952,363c0,0.5,0,0.9,0,1.4c-0.1,8.1-0.6,16.2-1.4,24.2c0,0,0,0.1,0,0.1c-0.1,0.7-0.1,1.3-0.2,2
	c-0.1,1.1-0.3,2.3-0.4,3.4c-1.8,13.8-4.8,27.4-8.9,40.7l0,0c-5.5,17.9-13.3,35.1-23.2,51c-3,4.9-6.3,9.6-9.7,14.2l0,0
	c-1.8,2.4-3.7,4.8-5.6,7.1c-1.4,1.6-2.7,3.2-4.1,4.8l-0.9,1c-7.4,8.1-15.4,15.7-23.9,22.7c-13.9,11.5-28.8,21.5-43.9,30.8
	c-0.9,0.5-1.7,1.1-2.6,1.5c-0.1,0-0.1,0.1-0.2,0.1c-20.6,12.5-42,23.7-64,32.7c-24.1,9.9-49,17.1-74.5,20.2
	c-35.6,4.4-71.6,0.8-107-5.3c-29.4-5.1-58.5-12-87-20.8l-4.7-1.5c-2.4-0.8-4.9-1.6-7.3-2.4c-14.7-4.9-29.2-10.2-43.5-16.2
	c-36-14.8-70.4-33.3-102.7-55.1c-4.1-2.8-8.2-5.6-12.1-8.5c-5.6-4-11.1-8.1-16.5-12.4l-3.4-2.6c-14.2-11.2-27.6-23.4-39.9-36.6
	c-16.6-18-30.7-38.4-40-61.6c-1.5-3.7-2.8-7.4-4-11.2l-0.1-0.4c-0.6-1.9-1.2-3.9-1.7-5.9c-0.8-2.9-1.4-5.8-2-8.7
	c-0.1-0.6-0.2-1.1-0.3-1.7c-1.8-9.9-2.7-19.9-2.4-30c0.2-8.8,1.2-17.6,3.1-26.2l0,0c1.9-8.9,4.8-17.6,8.7-25.9l0,0
	c3.5-7.4,8-14.3,13.3-20.6l0,0c3.7-4.4,8-8.3,12.6-11.8c8.4-6.2,17.6-10.6,27.2-14l0,0c4.5-1.6,9.1-3,13.7-4.4
	c3.3-0.9,6.5-1.8,9.8-2.7l9.6-2.6c6.2-1.7,12.3-3.4,18.4-5.3c16.5-5.1,32.8-11.2,47.7-20.3c2.4-1.4,4.8-3,7.2-4.7
	c3.1-2.1,6.1-4.5,9.1-7l0,0c3-2.5,6-5.3,8.8-8.1c0.4-0.4,0.9-0.9,1.3-1.3c2.3-2.4,4.6-5,6.6-7.6c1-1.3,2-2.6,2.9-4
	c1.3-1.9,2.5-3.7,3.7-5.7l0,0c5.7-9.7,9.2-20.4,8.8-31.7c-0.1-1.9-0.2-3.7-0.5-5.6c-1-6.8-2-13.4-2.7-19.9
	c-3-26.9-1.7-51.2,18.4-74.1C466.6,8.6,505.9,2.8,541.7,5c103.5,6.5,197.7,65.6,280.5,136c7.2,6.1,14.2,12.2,21.2,18.5
	c1.8,1.6,3.5,3.2,5.3,4.7c13.1,11.8,26,24,38,37.1c1,1.1,1.9,2.1,2.9,3.2c0.6,0.7,1.2,1.3,1.8,2c3.7,4.2,7.4,8.6,10.9,13
	c9.4,11.8,17.8,24.4,24.9,37.7c10.9,20.9,18.3,43.4,21.9,66.7l0,0c1.3,8.5,2.2,17,2.6,25.5c0.1,2.5,0.2,5,0.3,7.6c0,0.8,0,1.6,0,2.4
	C952,360.7,952,361.9,952,363z"/>
<path class="st1" d="M1034.9,559.4c-3.5,8.8-7.9,17.2-13,25.1c-2.4,3.8-5,7.4-7.9,10.9H130.7c0.8-0.6,5.5-4.4,12.7-10.9
	c5.2-4.6,11.7-10.7,19.1-17.9l93.1-19.2c1.2-0.2,2.4-0.4,3.7-0.4l99.2-0.1h0.1l49.2-0.1h0.1l41.5,0h27.2l0,0h27.8l114-0.2h0.2h8.8
	h15.5h19.4h5.2l19.6-0.2h6.5l56.9-0.1h18.2l0,0h8.7l0,0l65.8-0.1h19.6l62.3-0.1l52.6-0.1c1.5,0,2.9,0.2,4.3,0.5L1034.9,559.4z"/>
<path class="st2" d="M143.4,584.5h878.4c-2.4,3.8-5,7.4-7.9,10.9H130.7C131.5,594.7,136.1,590.9,143.4,584.5z"/>
<path class="st3" d="M143.4,584.5h878.4c-2.4,3.8-5,7.4-7.9,10.9H130.7C131.5,594.7,136.1,590.9,143.4,584.5z"/>
<path class="st1" d="M713.3,337.3l-1.8,0.3L631.8,353c-23.2,4.5-46.7,8.9-70.2,7.2c-17-1.2-33-6.3-49.4-10.7
	c-9.3-2.5-19.1-3.5-22.2-13.9c-4.3-14.3,2.7-35.5,4.4-50c1.6-14.2,2.5-28.8-0.3-42.9c-0.6-3.2-1.5-6.3-2.5-9.3
	c-2.8-8.4-7.3-17.2-4.9-25.7c1.9-6.8,7.7-11.6,13.1-16.1c10.6-8.7,21.5-18.5,25.7-31.6c2.1-6.4,2.5-13.2,4.7-19.5
	c4.2-12,14.8-21,26.6-25.7s24.8-5.8,37.5-5.8c11.2,0,22.5,0.7,33.6,2.2c12.1,1.6,24.4,4.2,35.1,10.2s19.7,15.9,22.2,27.9
	c3.5,17-6.3,35.1-1,51.7c2.6,8.4,8.7,15.1,13,22.7c7,12.9,8.4,28.1,4,42.1c-5.1,15.7-17.5,31.6-11.1,46.8c4,9.7,14.4,14.9,21.6,22.5
	C712.2,336,712.8,336.7,713.3,337.3z"/>
<path class="st4" d="M711.5,335.3v2.3L631.8,353c-23.2,4.5-46.7,8.9-70.2,7.2c-17-1.2-33-6.3-49.4-10.7c-9.3-2.5-19.1-3.5-22.2-13.9
	c-4.3-14.3,2.7-35.5,4.4-50c1.6-14.2,26.1-66.2,23.2-80.2l146.2,6.4c1,7.8,39.6,46.7,37.2,54.2c-5.1,15.7-17.5,31.6-11.1,46.8
	C694,322.5,704.3,327.7,711.5,335.3z"/>
<path class="st5" d="M562.1,296c0.9,4.9,1.3,10.3-1.2,14.6c-3.3,5.8-10.6,7.6-17.2,8.9l-22.7,4.5c-1.5,0.3-3.2,0.7-4.3,1.7
	c-1.4,1.2-1.8,3.1-2,5c-0.9,8.2,2,16.3,4.6,24.1c5.3,15.8,9.8,32,16.6,47.2c6.8,15.3,16,29.8,29.3,40c13.2,10.2,30.8,15.6,47,11.7
	c14.1-3.5,25.7-13.4,35.7-24c8.2-8.7,16-18.3,19.9-29.6c2.8-7.8,3.7-16.1,4.5-24.3c1.3-12.6,2.7-25.2,4-37.8
	c0.6-5.9,1-12.6-2.8-17.1c-1.7-2-4-3.3-6.3-4.6c-8.7-4.6-17.9-8.4-25.9-14c-8.1-5.6-15.3-13.2-17.7-22.7c-1.5-5.7-1.2-11.9-3.7-17.2
	c-2.8-6-8.7-10-15.1-11.8c-6.4-1.8-13.1-1.5-19.6-0.8c-6.5,0.7-31.8,2.6-34.5,10c-1.5,4,4.6,12.5,6,16.4
	C559.2,282.7,560.9,289.3,562.1,296z"/>
<path class="st4" d="M562.1,296c0.9,4.9,1.3,10.3-1.2,14.6c-3.3,5.8-10.6,7.6-17.2,8.9l-22.7,4.5c-1.5,0.3-3.2,0.7-4.3,1.7
	c-1.4,1.2-1.8,3.1-2,5c-0.9,8.2,2,16.3,4.6,24.1c5.3,15.8,9.8,32,16.6,47.2c6.8,15.3,16,29.8,29.3,40c13.2,10.2,30.8,15.6,47,11.7
	c14.1-3.5,25.7-13.4,35.7-24c8.2-8.7,16-18.3,19.9-29.6c2.8-7.8,3.7-16.1,4.5-24.3c1.3-12.6,2.7-25.2,4-37.8
	c0.6-5.9,1-12.6-2.8-17.1c-1.7-2-4-3.3-6.3-4.6c-8.7-4.6-17.9-8.4-25.9-14c-8.1-5.6-15.3-13.2-17.7-22.7c-1.5-5.7-1.2-11.9-3.7-17.2
	c-2.8-6-8.7-10-15.1-11.8c-6.4-1.8-13.1-1.5-19.6-0.8c-6.5,0.7-31.8,2.6-34.5,10c-1.5,4,4.6,12.5,6,16.4
	C559.2,282.7,560.9,289.3,562.1,296z"/>
<path class="st6" d="M616.6,382.4l13.3-28.1c6.2-13.2,12.6-27,11.9-41.6c-0.1-2.9-0.2-6.5,2.4-7.8c1.1-0.5,2.3-0.6,3.5-0.4
	c14,0.7,27.8,3.5,40.9,8.3c2.6,0.9,5.2,2,7,4c1.8,2,2.5,4.8,3.1,7.4c2.1,8.9,3.6,17.9,4.6,26.9c2.4,22.4,1.2,45.1,0,67.6l-3.5,68.7
	c0,1-0.2,1.9-0.6,2.8c-0.9,1.6-2.8,2.1-4.6,2.4c-6.8,1.2-13.8,0.9-20.7,0.7c-48.6-1.8-97.5-4.7-145.9,1.2c0.2-7.1,0.1-14.3-0.3-21.5
	c-1.9-30.9-9.9-61.1-17.8-91c-4.6-17.5-9-36.6-1.6-53c1.1-2.6,2.6-5,4.6-7c3.1-3.1,7.4-4.7,11.7-5.9c7.3-2,14.9-2.8,22.5-2.5
	l50.1,109.1c2.3,5,4.2,10.2,6.5,15.2c2.1-8.5-0.4-18.5,2.1-27.7C608.2,400.5,612.4,391.4,616.6,382.4z"/>
<path class="st7" d="M611.4,457.5c9,0.6,17.7-4,23.8-10.5c6.2-6.5,10.2-14.7,13.7-23c4.9-11.9,8.9-24.1,11.8-36.6
	c2.4-10.6,4.1-21.7,2.4-32.5c-2.3-14.9-10.7-28.4-12.1-43.5c-0.2-2.6-0.1-5.7,2-7.3c1.3-1,3-1.1,4.6-1.2c15-0.9,31.5-0.7,43.1,8.8
	c3.5,2.9,6.4,6.5,9.9,9.5c8.2,7.2,19.9,10.8,25.2,20.3c1.8,3.3,2.7,7,4,10.6c3,8.4,8.3,15.8,13.5,23.1
	c-5.1,21.4-10.9,42.7-15.9,64.1c-3,12.5-6,25.1-10.6,37.1c-3.1,7.9-6.9,15.9-6,24.3c0.4,3.3,1.5,6.5,2.4,9.7
	c3.4,11.2,5,22.9,4.7,34.6l-226.8,0.6c10.9-15.6,14.1-34.7,12.9-53.6c-0.5-9.1-2.6-18.2-7.2-26.1c-7.2-12.3-19.9-20.3-32.4-27.2
	c-8.7-4.8-18.1,22.1-27.6,19c1.5-10.8,2.2-52.5,1.6-63.3c-0.2-3.6-0.5-7.2,0.6-10.6c0.7-2.3,2.1-4.4,3.1-6.7
	c3.7-9.1,0.2-20.7,6.2-28.4c4.2-5.4,11.5-6.9,17.4-10.2c6.1-3.4,10.8-8.7,16.1-13.3c10.4-8.8,23.1-14.5,36.7-16.4
	c4,6.2,6.4,13.3,7,20.7c0.4,4.6,0.1,9.3,0.8,13.9c0.9,6.2,3.5,12.1,6,17.8c10.6,24,21.3,48.1,34.8,70.6c3.8,6.4,7.9,12.7,13.5,17.7
	C596.1,454.3,604,457.9,611.4,457.5z"/>
<path class="st4" d="M611.4,457.5c9,0.6,17.7-4,23.8-10.5c6.2-6.5,10.2-14.7,13.7-23c4.9-11.9,8.9-24.1,11.8-36.6
	c2.4-10.6,4.1-21.7,2.4-32.5c-2.3-14.9-10.7-28.4-12.1-43.5c-0.2-2.6-0.1-5.7,2-7.3c1.3-1,3-1.1,4.6-1.2c15-0.9,31.5-0.7,43.1,8.8
	c3.5,2.9,6.4,6.5,9.9,9.5c8.2,7.2,19.9,10.8,25.2,20.3c1.8,3.3,2.7,7,4,10.6c3,8.4,8.3,15.8,13.5,23.1
	c-5.1,21.4-10.9,42.7-15.9,64.1c-3,12.5-6,25.1-10.6,37.1c-3.1,7.9-6.9,15.9-6,24.3c0.4,3.3,1.5,6.5,2.4,9.7
	c3.4,11.2,5,22.9,4.7,34.6l-226.8,0.6c10.9-15.6,14.1-34.7,12.9-53.6c-0.5-9.1-2.6-18.2-7.2-26.1c-7.2-12.3-19.9-20.3-32.4-27.2
	c-8.7-4.8-18.1,22.1-27.6,19c1.5-10.8,2.2-52.5,1.6-63.3c-0.2-3.6-0.5-7.2,0.6-10.6c0.7-2.3,2.1-4.4,3.1-6.7
	c3.7-9.1,0.2-20.7,6.2-28.4c4.2-5.4,11.5-6.9,17.4-10.2c6.1-3.4,10.8-8.7,16.1-13.3c10.4-8.8,23.1-14.5,36.7-16.4
	c4,6.2,6.4,13.3,7,20.7c0.4,4.6,0.1,9.3,0.8,13.9c0.9,6.2,3.5,12.1,6,17.8c10.6,24,21.3,48.1,34.8,70.6c3.8,6.4,7.9,12.7,13.5,17.7
	C596.1,454.3,604,457.9,611.4,457.5z"/>
<circle class="st5" cx="599.4" cy="226.1" r="68.1"/>
<path class="st1" d="M563.7,316.9c1.9-17.6-5.5-34.9-13.8-50.5c-4-7.5-8.2-14.9-10.2-23.2c-2-8.2-1.4-17.5,3.7-24.3
	c4.3-5.8,11.2-8.9,17.6-12.2c18-9.5,34.4-23.6,42.3-42.3c-4.5,2.4-3.3,9.7,0.6,12.9c3.9,3.2,9.3,3.8,14.2,5.3
	c17.7,5.6,28.3,23.2,36.8,39.7c1.4,2.7,2.8,5.5,2.8,8.6c0,3-1.4,5.7-2.8,8.3c-4.2,7.5-9.3,14.6-11.2,23c-2.2,9.5,0.1,19.6,3.1,28.9
	c3.2,10,7.4,20,15,27.1s19.5,10.7,28.9,6.1c-9.4-16.1-19.1-34.1-15.4-52.4c1.8-8.7,6.5-16.7,8.5-25.4c3.8-16.6-2.6-33.7-8.8-49.5
	L656,149.7c-2.9-7.2-6.1-14.9-12.7-19c-4.5-2.8-9.8-3.5-15.1-4c-16.8-1.5-34.2-1-49.8,5.2c-28.5,11.4-46.3,39.4-60.5,66.6
	c-4.2,8.1-8.4,16.8-8.3,26c0.1,5,1.5,9.9,2.6,14.9c4.7,20,4.9,40.7,5.2,61.2c0.2,15.8-0.6,30.6-7.5,44.9c9.4,1.9,23.1,6.9,32.5,3.2
	C554.6,344,562.1,329.1,563.7,316.9z"/>
<g class="st8">
	<path d="M517.4,300.3c0-2.2,0-4.5,0-6.8c-0.2-20.5-0.5-41.2-5.2-61.2c-1-3.9-1.9-7.8-2.4-11.8c-0.2,1.4-0.2,2.7-0.2,4.1
		c0.1,5,1.5,9.9,2.6,14.9C516.9,259.3,517.2,279.9,517.4,300.3z"/>
	<path d="M683.6,246.4c1-4.6,1.4-9.4,1-14.2c-0.2,2.4-0.5,4.7-1,7c-2,8.7-6.8,16.6-8.5,25.4c-0.8,3.9-1,7.8-0.6,11.7
		c0.1-1.5,0.3-3.1,0.6-4.6C676.9,263,681.6,255.1,683.6,246.4z"/>
	<path d="M657,227.1c0.4-1.1,0.6-2.3,0.6-3.5c0-3-1.4-5.9-2.8-8.6c-8.5-16.5-19.1-34.1-36.8-39.7c-4.8-1.5-10.2-2.1-14.2-5.3
		c-2.1-1.8-3.3-4.3-3.5-7c-8.6,15.8-23.4,27.9-39.5,36.4c-6.4,3.4-13.2,6.5-17.6,12.2c-4.1,5.4-5.3,12.4-4.6,19.2
		c0.4-4.4,2-8.5,4.6-12.1c4.3-5.8,11.2-8.9,17.6-12.2c16-8.5,30.8-20.6,39.5-36.4c0.2,2.7,1.4,5.2,3.5,7c4,3.2,9.3,3.8,14.2,5.3
		c17.7,5.6,28.3,23.2,36.8,39.7C655.7,223.8,656.4,225.4,657,227.1z"/>
	<path d="M661.7,310.9c-7.6-7.2-11.8-17.2-15-27.1c-1.9-5.6-3.2-11.4-3.8-17.3c-0.7,8.2,1.3,16.5,3.8,24.4c3.2,10,7.4,20,15,27.1
		s19.5,10.7,28.9,6.1c-1.1-1.9-2.2-3.9-3.4-5.9C678.4,320.7,668.4,317.2,661.7,310.9z"/>
	<path d="M563.7,309.7c-1.5,12.3-9,27.1-21.3,31.9c-8.5,3.4-20.6-0.5-29.8-2.6c-0.8,2.2-1.7,4.4-2.7,6.6c9.4,1.9,23.1,6.9,32.5,3.2
		c12.2-4.8,19.7-19.7,21.3-31.9c0.3-3.1,0.4-6.2,0.2-9.2C563.8,308.3,563.7,309,563.7,309.7z"/>
</g>
<path class="st6" d="M660,506.8c-12.3-1.9-24.7-5.7-36.9-3.2c-7.1,1.5-13.5,5-19.4,9.2c3.2,2.6,7,4.9,9,8.5c1.3,2.5,2.2,5.1,2.8,7.8
	c1.3,4.8,2.6,9.6,2.8,14.6c0.2,5-0.8,10.1-3.8,14.1c15.5,1.5,30.5-2.3,45.6-6c1.7-0.3,3.4-1,4.8-1.9c2.4-1.9,3.1-5.2,3.1-8.3
	c0-5.4-1.5-10.7-3.1-16C663.2,519.4,661.8,513,660,506.8z"/>
<path class="st7" d="M742.9,372.7c6.1,0.8,10.8,5.7,14.3,10.8c9.8,14.1,14,31.1,18.7,47.6c5.8,20.5,12.7,40.7,20.6,60.5
	c1.7,4.6,3.8,9,6.2,13.3c2,3.3,4.3,6.4,5.2,10.2c2.1,9-5.3,17.5-13.1,22.5c-4.1,2.8-8.6,5-13.4,6.5c-4.6,1.4-9.4,1.9-14.2,2.4
	l-44.1,4.8c-20.3,2.2-40.8,4.4-61.1,2.3c-1.3-4.5,1.2-7.6,1-12.2c-0.1-3.3-1.6-6.4-2.9-9.4c-2.4-5.4-4-11.2-4.7-17.1
	c-0.2-2.2-0.3-4.4-1.1-6.4c-0.8-2-2.6-3.8-4.8-4c11.9-1.2,21-3.4,32.9-4.6c4.4-0.4,9-0.9,12.8-3.3c4.7-2.9,7.3-8.2,9.4-13.3
	c5.2-12.6,8.5-26.6,5.8-39.9c-2.2-11-8.4-21.2-8.4-32.4c0-6.7,2.3-13.1,5-19.2c2.8-6.5,6.6-13.1,12.8-16.3
	C725.9,371.9,735.8,371.8,742.9,372.7z"/>
<path class="st9" d="M742.9,372.7c6.1,0.8,10.8,5.7,14.3,10.8c9.8,14.1,14,31.1,18.7,47.6c5.8,20.5,12.7,40.7,20.6,60.5
	c1.7,4.6,3.8,9,6.2,13.3c2,3.3,4.3,6.4,5.2,10.2c2.1,9-5.3,17.5-13.1,22.5c-4.1,2.8-8.6,5-13.4,6.5c-4.6,1.4-9.4,1.9-14.2,2.4
	l-44.1,4.8c-20.3,2.2-40.8,4.4-61.1,2.3c-1.3-4.5,1.2-7.6,1-12.2c-0.1-3.3-1.6-6.4-2.9-9.4c-2.4-5.4-4-11.2-4.7-17.1
	c-0.2-2.2-0.3-4.4-1.1-6.4c-0.8-2-2.6-3.8-4.8-4c11.9-1.2,21-3.4,32.9-4.6c4.4-0.4,9-0.9,12.8-3.3c4.7-2.9,7.3-8.2,9.4-13.3
	c5.2-12.6,8.5-26.6,5.8-39.9c-2.2-11-8.4-21.2-8.4-32.4c0-6.7,2.3-13.1,5-19.2c2.8-6.5,6.6-13.1,12.8-16.3
	C725.9,371.9,735.8,371.8,742.9,372.7z"/>
<path class="st5" d="M466.6,362.4c2.9-6.9,5.8-13.9,5.9-21.4c0.1-8-3.2-15.7-5.7-23.3c-3.1-9.3-5.1-19-6.1-28.8
	c-0.2-0.9-0.1-1.9,0.4-2.8c0.7-0.9,1.9-1.1,3.1-1.4c5.5-1.3,9.7-5.7,13.1-10.2c5.3-6.9,9.8-14.4,13.4-22.4c2.6-5.9,6.2-13,12.6-13.1
	c-2.6,12.1-5.8,24.1-9.6,36c6.7-1.7,13.1-4.2,19.8-5.9c1.3-0.4,2.7-0.6,4.1-0.5c4,0.4,6.5,5.9,4.1,9.2c3.3,3.8,8.7,4.9,13,7.5
	s7.4,9.2,3.6,12.5c-0.7,0.6-1.7,1.1-2.2,1.9c-1.8,2.8,2.7,6.1,2.3,9.5c-0.3,2.8-3.8,4-6.5,3.3c-2.7-0.7-4.8-2.7-7.2-4.2
	c-2.4-1.5-5.5-2.4-7.8-0.9c-0.6,7.5-1.3,15.1-4.5,21.9c-1.2,2.5-2.7,4.8-3.7,7.4c-0.9,2.8-1.5,5.7-1.7,8.7l-2.9,26.4
	C490.3,374.7,478,370.6,466.6,362.4z"/>
<path class="st6" d="M463.2,386l-2.5-17.2c-0.2-1.4-0.4-2.8-0.4-4.2c0-4,1.7-7.8,3.4-11.4c14,6.5,29.2,8.9,44.7,8.9
	c2,0,4.4-0.2,5.6-1.8c2.6,3,2.7,7.9,1.6,11.7c-1.1,3.8-3.3,7.3-4.7,11.1c-0.7,1.9-1.3,4-2.7,5.4c-2.1,2.3-5.6,2.7-8.8,2.7
	c-3.3,0-6.6-0.3-9.9-0.9C481.1,388.8,471.7,384.5,463.2,386z"/>
<path class="st7" d="M515.6,385.3c-10.9-1.2-21.7-3-32.5-5.2c-5.3-1.1-10.6-2.3-16-2.1c-3.5,0.1-7.3,0.8-10.3-0.9
	c3,10.2,3.2,20.9-0.4,30.9c-2.1,6-5.4,11.5-6.9,17.7c-3.2,12.8,1.2,26.8-2.8,39.4c-0.4,1.6-1.3,3.2-2.4,4.4c-1.2,1.1-2.9,1.7-4.1,3
	c-1.7,1.8-1.8,4.5-1.8,7l-0.1,21.9c0,13.9,0.1,28.7,7.5,40.5c8.4,13.5,26.1,20.5,41.4,16.4c4.1-1,7.9-2.9,11.3-5.5
	c5.3-4.2,8.7-10.4,12.1-16.4c4-7.2,7.9-14.5,9.2-22.5c0.9-5.7,0.4-11.5-0.3-17.2c-3.6-31.8-11.4-63.3-9.7-95.2
	C510,395.6,512,390,515.6,385.3z"/>
<path class="st5" d="M561.1,517.3c-5.5,0.3-11.1,0.6-16.6,0c-4-0.5-7.9-1.5-11.8-2.1c-21.8-3.5-44,2.7-60.9,16.9
	c-3.1,2.6-6.1,6.6-4.5,10.3c1.8,3.9,7.4,3.8,11.6,3.1c-4.6,2.2-8.7,5.4-11.9,9.3c-1.2,1.5-2.3,3.2-2.1,5.1c0.5,3.9,5.8,4.6,9.8,4.3
	c-1.3,1.4-0.4,3.8,1.2,4.8s3.7,0.7,5.5,0.4c4.1-0.7,8-2.1,11.7-4.1c-0.7,1.9,0.5,4.2,2.4,5.2s4.1,0.9,6.1,0.6
	c9.7-1.6,17.8-8.3,27.3-11c15.1-4.2,31,2.5,46.7,3c4.9,0.2,10-0.3,14.5-2.4c5.5-2.5,10-7.2,15.8-8.9c6.5-1.8,13.9,0.3,19.8-2.9
	c4.3-2.3,0.4-20.1-0.7-23.6c-2-6.3-4-10.4-10.7-11.1C597.4,512.5,578.1,516.3,561.1,517.3z"/>
<path class="st6" d="M603.4,512.4c0,0,25.7,21.7,10.9,45.4l28.6-9.9v-20.7c0-1-10.9-15.8-10.9-15.8l-12.8-2L603.4,512.4z"/>
<path class="st10" d="M334.7,511.1h9.6c11,0,19.9,8.9,19.9,19.9v29.5l0,0h-49.4l0,0v-29.5C314.8,520,323.7,511.1,334.7,511.1
	C334.7,511.1,334.7,511.1,334.7,511.1z"/>
<path class="st4" d="M334.7,511.1h9.6c11,0,19.9,8.9,19.9,19.9v29.5l0,0h-49.4l0,0v-29.5C314.8,520,323.7,511.1,334.7,511.1
	C334.7,511.1,334.7,511.1,334.7,511.1z"/>
<circle class="st10" cx="337.5" cy="518" r="4"/>
<circle class="st10" cx="337.5" cy="513" r="4"/>
<circle class="st10" cx="337.5" cy="508.1" r="4"/>
<circle class="st10" cx="337.5" cy="503.2" r="4"/>
<circle class="st10" cx="337.5" cy="498.2" r="4"/>
<circle class="st10" cx="337.5" cy="493.3" r="4"/>
<circle class="st10" cx="337.5" cy="488.3" r="4"/>
<circle class="st10" cx="343.4" cy="490.3" r="4"/>
<circle class="st10" cx="347.4" cy="488.3" r="4"/>
<circle class="st10" cx="351.3" cy="486.4" r="4"/>
<circle class="st10" cx="337.5" cy="483.4" r="4"/>
<circle class="st10" cx="337.5" cy="478.5" r="4"/>
<circle class="st10" cx="337.5" cy="473.5" r="4"/>
<circle class="st10" cx="337.5" cy="468.6" r="4"/>
<path class="st7" d="M353.9,455.9c-1,0.1-2,0.2-3,0.3c0.9-0.8,1.8-1.7,2.5-2.6c-0.5-1.7-1.4-3.2-2.4-4.6c-1,0.5-2.1,0.9-3.2,1
	c-1,0.1-2,0.2-2.9,0.3c1.3-1.1,2.5-2.6,3.8-4c-6.9-6.2-17.5-5.7-23.7,1.2c-6.2,6.9-5.7,17.5,1.2,23.7s17.5,5.7,23.7-1.2
	c2.8-3.1,4.3-7.1,4.3-11.3c0-1-0.1-1.9-0.3-2.9L353.9,455.9z"/>
<path class="st7" d="M367.1,475.5c-1,0.6-2.1,1-3.3,1.1c-1,0.1-2,0.3-2.9,0.3c1-0.9,2-2,2.9-3c-5.3-1.4-10.7,1.8-12.1,7.1
	c-1.4,5.3,1.8,10.7,7.1,12.1c5.3,1.4,10.7-1.8,12.1-7.1C371.8,482,370.3,477.9,367.1,475.5L367.1,475.5z"/>
<circle class="st10" cx="331.6" cy="490.3" r="4"/>
<circle class="st10" cx="327.6" cy="488.3" r="4"/>
<circle class="st10" cx="323.7" cy="486.4" r="4"/>
<path class="st7" d="M307.9,475.5c1,0.6,2.1,1,3.3,1.1c1,0.1,2,0.3,2.9,0.3c-1-0.9-2-2-2.9-3c5.3-1.4,10.7,1.8,12.1,7.1
	c1.4,5.3-1.8,10.7-7.1,12.1c-5.3,1.4-10.7-1.8-12.1-7.1C303.2,482,304.7,477.9,307.9,475.5L307.9,475.5z"/>
<path class="st10" d="M334.7,514h9.6c11,0,19.9,8.9,19.9,19.9l0,0V560c0,1.9-1.5,3.4-3.4,3.4h-42.6c-1.9,0-3.4-1.5-3.4-3.4v-26.1
	C314.8,522.9,323.7,514,334.7,514C334.6,514,334.6,514,334.7,514z"/>
<g class="st8">
	<path d="M354.2,456.9c-0.4,0.4-0.8,0.8-1.3,1.2c0.5,0,0.9-0.1,1.4-0.1C354.2,457.7,354.2,457.3,354.2,456.9z"/>
	<path d="M347,452.2c1-0.1,2-0.2,3-0.3c0.9-0.1,1.7-0.3,2.6-0.7c-0.4-0.8-0.9-1.6-1.4-2.3c-0.5,0.3-1,0.5-1.6,0.7
		C348.7,450.5,347.9,451.4,347,452.2z"/>
	<path d="M322.7,460.7c0-9.3,7.5-16.8,16.7-16.8c3.2,0,6.4,0.9,9.1,2.7l0.3-0.3c-6.9-6.2-17.5-5.5-23.7,1.4s-5.5,17.5,1.4,23.7
		c0.1,0.1,0.1,0.1,0.2,0.2C324.1,468.5,322.7,464.7,322.7,460.7z"/>
</g>
<g class="st8">
	<path d="M360.8,478.9c1-0.1,2-0.2,2.9-0.3c1.2-0.1,2.3-0.5,3.3-1.1c2.3,1.7,3.7,4.2,4,7c0-0.3,0.1-0.7,0.1-1c0-3.1-1.5-6.1-4-7.9
		c-1,0.6-2.1,1-3.3,1.1l-0.8,0.1C362.3,477.5,361.6,478.2,360.8,478.9z"/>
	<path d="M361.2,475.5c0.3,0,0.7,0,1,0.1c0.5-0.5,1-1.1,1.5-1.7c-5.3-1.4-10.7,1.7-12.1,7c-0.2,0.8-0.3,1.7-0.3,2.6c0,0.3,0,0.7,0,1
		C351.9,479.4,356.1,475.5,361.2,475.5z"/>
</g>
<g class="st8">
	<path d="M314.2,478.9c-1-0.1-2-0.2-2.9-0.3c-1.2-0.1-2.3-0.5-3.3-1.1c-2.3,1.7-3.7,4.2-4,7c0-0.3-0.1-0.7-0.1-1
		c0-3.1,1.5-6.1,4-7.9c1,0.6,2.1,1,3.3,1.1l0.8,0.1C312.7,477.5,313.4,478.2,314.2,478.9z"/>
	<path d="M313.8,475.5c-0.3,0-0.7,0-1,0.1c-0.5-0.5-1-1.1-1.5-1.7c5.3-1.4,10.7,1.7,12.1,7c0.2,0.8,0.3,1.7,0.3,2.6c0,0.3,0,0.7,0,1
		C323.1,479.4,318.9,475.5,313.8,475.5z"/>
</g>
<path class="st7" d="M317.6,567.7H240c-1.8,0-3.3-1.5-3.3-3.3l0,0v-36.8c0-1.8,1.5-3.3,3.3-3.3c0.5,0,1,0.1,1.4,0.3
	c22.3,10.6,46.3,14.2,74.7,0.2c1.6-0.8,3.6-0.1,4.4,1.5c0.2,0.4,0.3,0.9,0.3,1.4v36.6C320.9,566.2,319.4,567.7,317.6,567.7
	C317.6,567.7,317.6,567.7,317.6,567.7z"/>
<polygon class="st11" points="863.2,563.9 748.7,579.1 742.9,579.8 686.9,549.9 686.9,542.9 861.9,523.8 "/>
<polygon class="st12" points="719.4,553.1 843.5,538.5 842.2,561.4 745.5,568.5 "/>
<path class="st3" d="M748.7,571.5v7.5l-5.7,0.8l-56-29.9v-7l53.5,28.6C740.4,571.5,747.4,572.2,748.7,571.5z"/>
<path class="st10" d="M770.6,452.2l-25.7,119.3c-0.9,4.1,1.7,8.2,5.8,9.1c0.9,0.2,1.7,0.2,2.6,0.1l162.7-21.5
	c2.9-0.4,5.3-2.4,6.2-5.2l35.1-105.9c1.3-4-0.9-8.3-4.9-9.6c-0.9-0.3-1.8-0.4-2.7-0.4l-172.1,8.2
	C774.3,446.4,771.4,448.8,770.6,452.2z"/>
<ellipse transform="matrix(0.1045 -0.9945 0.9945 0.1045 273.1786 1294.8619)" class="st6" cx="855.6" cy="495.7" rx="6.9" ry="4.4"/>
</svg>
